<?xml version="1.0" standalone="no"?>
<!DOCTYPE svg PUBLIC "-//W3C//DTD SVG 20010904//EN"
 "http://www.w3.org/TR/2001/REC-SVG-20010904/DTD/svg10.dtd">
<svg version="1.0" xmlns="http://www.w3.org/2000/svg"
 width="1072.000000pt" height="1072.000000pt" viewBox="0 0 1072.000000 1072.000000"
 preserveAspectRatio="xMidYMid meet">
<metadata>
Created by potrace 1.11, written by Peter Selinger 2001-2013
</metadata>
<g transform="translate(0.000000,1072.000000) scale(0.100000,-0.100000)"
fill="#000000" stroke="none">
<path d="M1571 10160 c-87 -34 -147 -119 -170 -240 -10 -53 -8 -284 4 -345 10
-57 15 -90 20 -140 3 -27 8 -57 10 -65 4 -14 9 -50 20 -135 2 -22 7 -51 10
-65 3 -14 7 -45 10 -70 3 -25 7 -56 10 -70 2 -14 7 -43 10 -65 3 -22 7 -51 10
-65 2 -14 7 -45 10 -70 3 -25 7 -56 10 -70 3 -14 7 -44 10 -67 6 -51 15 -114
30 -200 2 -16 11 -81 20 -145 9 -65 18 -125 19 -135 2 -10 7 -43 11 -73 3 -30
8 -66 10 -80 2 -14 7 -50 10 -80 4 -30 9 -66 10 -80 20 -160 27 -485 13 -605
-18 -155 -39 -210 -170 -455 -43 -79 -78 -147 -78 -150 0 -3 -7 -18 -16 -35
-30 -55 -86 -189 -110 -262 -21 -63 -34 -116 -60 -238 -3 -16 -8 -88 -9 -160
-5 -201 28 -347 120 -542 132 -280 415 -488 902 -662 153 -55 512 -161 663
-196 8 -2 62 -15 120 -30 58 -15 112 -28 120 -30 8 -2 51 -13 95 -25 44 -11
88 -23 97 -25 10 -2 96 -24 190 -50 855 -226 1422 -485 1832 -833 119 -102
323 -318 312 -330 -4 -3 -10 -2 -14 3 -10 14 -38 29 -202 111 -125 62 -415
192 -445 199 -5 1 -17 5 -25 8 -150 65 -950 334 -1077 362 -10 2 -49 13 -88
25 -98 29 -424 115 -471 124 -10 2 -55 13 -99 24 -70 18 -128 30 -213 47 -13
2 -31 6 -40 9 -19 6 -162 32 -257 47 -117 18 -171 23 -260 22 -76 0 -107 -6
-198 -37 -199 -66 -317 -131 -429 -234 -153 -142 -222 -302 -222 -517 0 -60
10 -198 18 -245 3 -14 8 -47 11 -75 4 -27 9 -63 11 -80 10 -62 11 -266 2 -317
-14 -78 -53 -168 -130 -303 -80 -139 -108 -219 -103 -296 4 -71 19 -112 71
-184 61 -86 125 -141 363 -310 162 -115 259 -208 295 -281 30 -61 33 -93 21
-216 -7 -73 -7 -77 17 -101 39 -39 97 -50 223 -43 61 3 126 8 145 11 390 63
769 226 1204 517 128 86 441 324 530 403 6 6 47 41 91 79 71 61 185 164 294
265 31 29 235 225 500 480 141 136 423 404 475 451 l28 25 -16 -40 c-8 -22
-63 -175 -121 -340 -58 -165 -117 -329 -130 -365 -13 -36 -44 -121 -69 -190
-24 -69 -67 -186 -94 -260 -90 -247 -139 -449 -157 -645 -4 -38 -9 -81 -11
-95 -6 -31 -5 -311 1 -365 17 -157 37 -247 72 -323 29 -62 60 -86 110 -84 44
2 67 16 129 82 85 90 213 154 369 184 17 4 41 9 55 12 14 3 36 7 50 10 79 15
182 49 234 77 66 35 145 109 191 177 17 25 36 51 43 58 6 7 12 17 12 22 0 16
113 156 169 209 31 29 106 92 166 139 261 203 359 316 417 482 27 79 32 114
31 210 -1 120 -43 237 -146 405 -236 386 -693 631 -1202 645 -61 2 -66 3 -35
11 157 38 430 30 614 -17 140 -36 294 -108 440 -207 73 -49 337 -254 356 -276
17 -21 132 -98 193 -131 133 -71 237 -72 372 -2 159 83 647 625 802 891 53 91
132 164 528 486 121 98 222 182 225 185 3 3 19 16 35 29 163 124 232 272 167
361 -17 23 -89 65 -173 99 -18 8 -71 32 -117 53 -295 134 -542 191 -822 188
-58 0 -118 -2 -135 -4 -16 -2 -59 -7 -95 -11 -36 -4 -83 -11 -105 -15 -22 -5
-54 -11 -71 -14 -194 -34 -554 -165 -800 -291 -278 -142 -579 -353 -787 -552
-26 -25 -49 -44 -52 -42 -2 3 16 45 40 94 80 162 159 438 181 632 3 32 8 72
10 88 6 43 6 296 -1 350 -3 25 -7 64 -10 88 -3 23 -12 78 -21 122 -8 44 -18
93 -21 109 -6 34 -91 283 -104 306 -6 10 -8 6 -5 -15 3 -16 10 -66 16 -110 6
-44 13 -91 16 -105 25 -138 25 -635 0 -777 -2 -10 -7 -36 -11 -58 -7 -39 -12
-69 -19 -110 -65 -368 -284 -835 -515 -1095 l-31 -35 34 61 c133 232 253 583
301 876 3 18 7 44 10 58 2 14 7 52 11 85 3 33 8 74 10 90 20 166 20 520 -1
700 -2 17 -7 57 -11 90 -3 33 -8 69 -10 80 -2 10 -6 37 -9 60 -4 22 -20 103
-36 180 -106 491 -313 980 -586 1380 -72 105 -215 289 -234 301 -5 3 24 -61
64 -143 76 -156 107 -224 177 -388 23 -55 46 -109 51 -120 80 -183 198 -548
259 -800 12 -49 25 -106 30 -125 5 -19 12 -53 15 -75 4 -22 9 -48 11 -58 3
-10 7 -32 10 -50 2 -18 6 -41 8 -52 4 -19 22 -144 31 -210 5 -42 23 -215 30
-305 7 -76 7 -478 1 -560 -5 -55 -16 -166 -21 -200 -2 -14 -7 -49 -10 -79 -4
-30 -9 -63 -11 -75 -2 -12 -11 -61 -20 -111 -8 -49 -17 -92 -19 -95 -2 -4 -6
-17 -8 -31 -13 -69 -91 -346 -111 -394 -7 -16 -28 -68 -46 -115 -18 -47 -41
-101 -52 -120 l-19 -35 6 35 c8 42 11 61 25 120 10 45 28 149 37 205 2 17 8
55 13 85 5 30 12 82 16 115 3 33 8 74 10 90 27 202 26 726 -1 980 -7 67 -15
134 -20 165 -2 14 -11 68 -19 120 -22 130 -24 143 -47 240 -11 47 -22 93 -24
102 -32 151 -157 538 -224 693 -5 11 -16 36 -25 56 -8 19 -30 71 -49 115 -54
125 -215 435 -307 589 -122 206 -364 561 -473 695 -7 8 -28 35 -47 60 -19 25
-37 47 -40 50 -3 3 -21 25 -40 50 -19 25 -45 56 -56 70 -31 37 -167 193 -179
206 -5 6 -46 51 -90 100 -89 100 -490 503 -606 609 -41 39 -108 99 -149 135
-40 36 -78 70 -84 75 -72 67 -472 400 -600 500 -21 17 -64 50 -96 75 -31 25
-69 54 -84 65 -16 11 -33 25 -40 30 -6 6 -29 24 -51 40 -22 17 -42 32 -45 35
-3 3 -57 45 -120 92 -280 209 -424 277 -595 283 -67 2 -101 -2 -134 -15z"/>
</g>
</svg>
